REM MD5 9b6af0275f26da2057a8003cbd9937fe
FILE "Euro Demo 22 (France).bin" BINARY
  TRACK 01 MODE2/2352
    INDEX 01 00:00:00
  TRACK 02 AUDIO
    INDEX 00 45:52:19
    INDEX 01 45:54:19
  TRACK 03 AUDIO
    INDEX 00 49:34:22
    INDEX 01 49:36:22
  TRACK 04 AUDIO
    INDEX 00 52:36:19
    INDEX 01 52:38:19
  TRACK 05 AUDIO
    INDEX 00 55:09:74
    INDEX 01 55:11:74
REM LEADOUT 58:13:30
